<?xml version="1.0" encoding="utf-8"?>
<svg height="21" width="64" xmlns:xlink="http://www.w3.org/1999/xlink" xmlns="http://www.w3.org/2000/svg" viewBox="0 0 64 21">
    <path fill="#ffffff" fill-rule="evenodd" d="M 10.86 4.26 L 7.15 15.4 L 3.76 4.31 L 0 4.31 L 5.52 20.85 L 8.51 20.85 L 12.17 9.88 L 15.77 20.85 L 18.76 20.85 L 24.3 4.31 L 20.61 4.31 L 17.23 15.4 L 13.49 4.26 L 10.86 4.26 Z M 10.86 4.26" />
    <path fill="#ffffff" fill-rule="evenodd" d="M 24.52 20.85 L 24.52 9.13 L 27.83 9.13 L 27.83 11.71 C 28.85 8.68 32.3 9.13 32.3 9.13 L 32.3 12.38 C 32.3 12.38 27.83 12.05 27.83 15.68 L 27.83 20.85 L 24.52 20.85 Z M 24.52 20.85" />
    <path fill="#ffffff" fill-rule="evenodd" d="M 33.85 20.85 L 33.85 13.63 L 37.16 10.47 L 37.16 20.85 L 33.85 20.85 Z M 33.85 20.85" />
    <path fill="#ffffff" fill-rule="evenodd" d="M 39.94 20.85 L 39.94 7.9 L 43.25 4.6 L 43.25 13.4 L 47.29 9.13 L 51.36 9.13 L 46.26 14.42 L 52.16 20.85 L 47.88 20.85 L 43.25 15.8 L 43.25 20.85 L 39.94 20.85 Z M 39.94 20.85" />
    <path fill="#ffffff" fill-rule="evenodd" d="M 59.79 13.72 C 59.72 12.44 58.81 11.4 57.35 11.4 C 55.87 11.4 54.87 12.35 54.71 13.72 L 59.79 13.72 Z M 53.31 19.33 C 52.08 18.22 51.46 16.73 51.46 14.9 C 51.46 13.18 52.02 11.74 53.13 10.58 C 54.24 9.4 55.7 8.82 57.49 8.82 C 59.18 8.82 60.51 9.42 61.5 10.61 C 62.5 11.79 63.01 13.23 63.01 14.95 L 63.01 15.8 L 54.71 15.8 C 55.05 17.38 56.54 18.22 58.58 18.22 C 59.88 18.22 61.11 17.87 62.29 17.2 L 62.29 19.82 C 61.25 20.61 59.79 21 57.88 21 C 56.08 21 54.54 20.44 53.31 19.33 L 53.31 19.33 Z M 53.31 19.33" />
    <path fill="#00a551" fill-rule="evenodd" d="M 40.58 0.38 L 33.17 7.79 L 35.37 10 L 44.99 0.38 L 40.58 0.38 Z M 40.58 0.38" />
    <path fill="#a5cd39" fill-rule="evenodd" d="M 34.05 4.27 L 29.65 4.27 L 35.37 9.99 L 37.58 7.79 L 34.05 4.27 Z M 34.05 4.27" />
</svg>