<?xml version="1.0" encoding="UTF-8" standalone="no"?>
<svg width="481px" height="351px" viewBox="0 0 481 351" version="1.1" xmlns="http://www.w3.org/2000/svg" xmlns:xlink="http://www.w3.org/1999/xlink">
    <!-- Generator: Sketch 3.7.2 (28276) - http://www.bohemiancoding.com/sketch -->
    <title>Group 21</title>
    <desc>Created with Sketch.</desc>
    <defs></defs>
    <g id="Product-1366" stroke="none" stroke-width="1" fill="none" fill-rule="evenodd">
        <g transform="translate(-732.000000, -2167.000000)" id="Page-1">
            <g transform="translate(698.000000, 2127.000000)">
                <g id="Group-21" transform="translate(34.000000, 40.000000)">
                    <polygon id="Fill-8" fill="#FFFFFF" points="0.807 350.25 480.808 350.25 480.808 20.25 0.807 20.25"></polygon>
                    <polygon id="Stroke-9" stroke="#CED9E0" stroke-width="1.5" points="479.808 350.25 1.808 350.25 1.808 20.25 479.808 20.25"></polygon>
                    <polygon id="Fill-11" fill="#404E60" points="480.89 50.25 0.725 50.25 0.725 20.25 480.89 20.25"></polygon>
                    <polygon id="Fill-12" fill="#5C6C7A" points="473.064 43.789 456.333 43.789 456.333 27.058 473.064 27.058"></polygon>
                    <polygon id="Fill-13" fill="#8A9EA8" points="463.3194 38.1345 461.2324 36.0475 461.2324 33.0955 463.3194 31.0085 466.2714 31.0085 468.3584 33.0955 468.3584 36.0475 466.2714 38.1345"></polygon>
                    <polygon id="Fill-14" fill="#8A9EA8" points="473.064 43.7889 456.333 43.7889 459.238 40.1479 470.624 40.1479"></polygon>
                    <polygon id="Fill-15" fill="#748899" points="25.6441 29.7173 17.2581 38.1033 19.7501 40.5953 30.6281 29.7173"></polygon>
                    <polygon id="Fill-16" fill="#9CB0BC" points="18.253 34.1138 13.269 34.1138 19.75 40.5948 22.242 38.1028"></polygon>
                    <polygon id="Fill-17" fill="#CED9E0" points="473.735 0.25 8.084 0.25 0.725 7.609 0.725 20.25 480.891 20.25 480.891 7.812"></polygon>
                    <polygon id="Fill-18" fill="#9CB0BC" points="11.5466 10.5918 14.5066 7.6318 17.4656 10.5918 14.5056 13.5518"></polygon>
                    <polygon id="Fill-19" fill="#9CB0BC" points="22.4654 10.5918 25.4254 7.6318 28.3844 10.5918 25.4244 13.5518"></polygon>
                    <polygon id="Fill-20" fill="#9CB0BC" points="33.3842 10.5918 36.3442 7.6318 39.3032 10.5918 36.3432 13.5518"></polygon>
                    <polyline id="Stroke-21" stroke="#60BBEF" stroke-width="1.5" points="85.9501 199.9769 84.9501 199.9769 84.9501 198.9769"></polyline>
                    <path d="M84.9501,196.9874 L84.9501,106.4644" id="Stroke-22" stroke="#60BBEF" stroke-width="1.5" stroke-dasharray="1.99,1.99"></path>
                    <polyline id="Stroke-23" stroke="#60BBEF" stroke-width="1.5" points="84.9501 105.4693 84.9501 104.4693 85.9501 104.4693"></polyline>
                    <path d="M87.9887,104.4693 L176.6587,104.4693" id="Stroke-24" stroke="#60BBEF" stroke-width="1.5" stroke-dasharray="2.038,2.038"></path>
                    <polyline id="Stroke-25" stroke="#60BBEF" stroke-width="1.5" points="177.6782 104.4691 178.6782 104.4691 178.6782 105.4691"></polyline>
                    <path d="M178.6782,107.4586 L178.6782,197.9816" id="Stroke-26" stroke="#60BBEF" stroke-width="1.5" stroke-dasharray="1.99,1.99"></path>
                    <polyline id="Stroke-27" stroke="#60BBEF" stroke-width="1.5" points="178.6782 198.9769 178.6782 199.9769 177.6782 199.9769"></polyline>
                    <path d="M175.6396,199.9769 L86.9696,199.9769" id="Stroke-28" stroke="#60BBEF" stroke-width="1.5" stroke-dasharray="2.038,2.038"></path>
                    <polygon id="Fill-29" fill="#CED9E0" points="471.0893 62.9893 471.0893 56.9893 479.8073 56.9893 479.8073 62.9893"></polygon>
                    <polygon id="Fill-30" fill="#E9EEF2" points="59.192 350.25 84.192 350.25 84.192 50.249 59.192 50.249"></polygon>
                    <polygon id="Fill-31" fill="#E9EEF2" points="228.308 350.25 253.308 350.25 253.308 50.249 228.308 50.249"></polygon>
                    <polygon id="Fill-32" fill="#E9EEF2" points="397.423 350.25 422.423 350.25 422.423 50.249 397.423 50.249"></polygon>
                    <polygon id="Fill-33" fill="#60BBEF" points="84.4534 114.9763 84.4534 102.9763 179.6814 102.9763 179.6814 114.9763"></polygon>
                    <polygon id="Fill-34" fill="#139BD1" points="84.453 114.9754 84.453 102.9754 96.539 102.9754 96.539 114.9754"></polygon>
                    <polygon id="Fill-35" fill="#3DAFE2" points="84.4543 120.8115 84.4543 117.8115 118.4333 117.8115 118.4323 120.8115"></polygon>
                    <polygon id="Fill-36" fill="#3DAFE2" points="120.9327 120.8112 120.9327 117.8112 141.7077 117.8112 141.7077 120.8112"></polygon>
                    <polygon id="Fill-37" fill="#C697E8" points="84.4536 148.1652 84.4536 136.1652 112.6396 136.1652 112.6396 148.1652"></polygon>
                    <polygon id="Fill-38" fill="#A96AE5" points="84.454 153.9994 84.454 150.9994 96.539 150.9994 96.539 153.9994"></polygon>
                    <polygon id="Fill-39" fill="#A96AE5" points="98.9436 153.9995 98.9436 150.9995 119.7186 150.9995 119.7186 153.9995"></polygon>
                    <polygon id="Fill-40" fill="#C697E8" points="422.4785 180.9943 422.4785 168.9943 472.9245 168.9943 472.9245 180.9943"></polygon>
                    <polygon id="Fill-41" fill="#A96AE5" points="422.4782 186.8267 422.4782 183.8267 445.4252 183.8267 445.4252 186.8267"></polygon>
                    <polygon id="Fill-42" fill="#A96AE5" points="447.354 183.825 464.174 183.825 464.174 186.825 447.354 186.825"></polygon>
                    <polygon id="Fill-43" fill="#B1E53E" points="190.5777 214.082 190.5777 202.082 228.3077 202.082 228.3077 214.082"></polygon>
                    <polygon id="Fill-44" fill="#A1D11F" points="190.5785 219.9162 190.5785 216.9182 210.0065 216.9182 210.0065 219.9162"></polygon>
                    <polygon id="Fill-45" fill="#60BBEF" points="122.2822 180.9907 122.2822 168.9907 174.7302 168.9907 174.7302 180.9907"></polygon>
                    <polygon id="Fill-46" fill="#3DAFE2" points="122.2757 186.8338 122.2757 183.8338 151.3427 183.8338 151.3427 186.8338"></polygon>
                    <polygon id="Fill-47" fill="#3DAFE2" points="153.6088 186.8333 153.6088 183.8333 168.1418 183.8333 168.1418 186.8333"></polygon>
                    <polygon id="Fill-48" fill="#60BBEF" points="291.3969 145.2437 291.3969 133.2437 343.8449 133.2437 343.8449 145.2437"></polygon>
                    <path d="M397.4243,133.2444 L343.8453,133.2444 L343.8453,145.2444 L397.4243,145.2444 L397.4243,133.2444 Z M395.9243,134.7444 L395.9243,143.7444 L345.3453,143.7444 L345.3453,134.7444 L395.9243,134.7444 Z" id="Fill-49" fill="#60BBEF"></path>
                    <polygon id="Fill-50" fill="#3DAFE2" points="291.3905 151.0868 291.3905 148.0868 320.4575 148.0868 320.4575 151.0868"></polygon>
                    <polygon id="Fill-51" fill="#3DAFE2" points="322.7251 151.0897 322.7251 148.0897 365.6861 148.0897 365.6861 151.0897"></polygon>
                    <polygon id="Fill-52" fill="#60BBEF" points="84.4608 264.759 84.4608 252.759 136.9088 252.759 136.9088 264.759"></polygon>
                    <polygon id="Fill-53" fill="#3DAFE2" points="84.4542 270.6017 84.4542 267.6017 101.4432 267.6017 101.4432 270.6017"></polygon>
                    <polygon id="Fill-54" fill="#3DAFE2" points="103.7885 270.6038 103.7885 267.6038 136.9085 267.6038 136.9085 270.6038"></polygon>
                    <path d="M179.681,252.757 L136.908,252.757 L136.908,264.757 L179.681,264.757 L179.681,252.757 Z M178.181,263.257 L138.408,263.257 L138.408,254.257 L178.181,254.257 L178.181,263.257 Z" id="Fill-55" fill="#60BBEF"></path>
                    <polygon id="Fill-56" fill="#60BBEF" points="37.8794 246.9115 37.8794 234.9115 59.5064 234.9115 59.5064 246.9115"></polygon>
                    <polygon id="Fill-57" fill="#3DAFE2" points="37.8751 252.7589 37.8751 249.7589 52.4081 249.7589 52.4081 252.7589"></polygon>
                    <polygon id="Fill-58" fill="#3DAFE2" points="55.2084 252.7589 55.2084 249.7589 69.7414 249.7589 69.7414 252.7589"></polygon>
                    <polygon id="Fill-59" fill="#A1D11F" points="212.889 216.92 238.292 216.92 238.292 219.918 212.889 219.918"></polygon>
                    <polygon id="Fill-60" fill="#B1E53E" points="179.6815 282.6069 179.6815 270.6069 291.3905 270.6069 291.3905 282.6069"></polygon>
                    <polygon id="Fill-61" fill="#A6D32D" points="228.3078 282.6056 228.3078 270.6056 253.3078 270.6056 253.3078 282.6056"></polygon>
                    <polygon id="Fill-62" fill="#A1D11F" points="179.6813 288.439 179.6813 285.441 213.8803 285.441 213.8803 288.439"></polygon>
                    <polygon id="Fill-63" fill="#A1D11F" points="215.9912 288.4404 215.9912 285.4424 241.5472 285.4424 241.5472 288.4404"></polygon>
                    <g id="Group-68" transform="translate(1.000000, 69.000000)" stroke="#CED9E0" stroke-width="1.5">
                        <path d="M0.804441164,20.9783 L478.808599,20.9783" id="Stroke-64"></path>
                        <path d="M0.804441164,0.9783 L478.808599,0.9783" id="Stroke-66"></path>
                    </g>
                    <polygon id="Fill-69" fill="#AABFCE" points="65.903 83.4783 65.903 77.4783 77.481 77.4783 77.481 83.4783"></polygon>
                    <polygon id="Fill-70" fill="#CED9E0" points="94.089 83.4783 94.089 77.4783 105.667 77.4783 105.667 83.4783"></polygon>
                    <polygon id="Fill-71" fill="#CED9E0" points="122.2749 83.4783 122.2749 77.4783 133.8529 77.4783 133.8529 83.4783"></polygon>
                    <polygon id="Fill-72" fill="#CED9E0" points="150.4608 83.4783 150.4608 77.4783 162.0388 77.4783 162.0388 83.4783"></polygon>
                    <polygon id="Fill-73" fill="#CED9E0" points="133.8584 62.9902 133.8584 56.9902 178.6524 56.9902 178.6524 62.9902"></polygon>
                    <polygon id="Fill-74" fill="#CED9E0" points="178.6468 83.4783 178.6468 77.4783 190.2248 77.4783 190.2248 83.4783"></polygon>
                    <polygon id="Fill-75" fill="#CED9E0" points="206.8327 83.4783 206.8327 77.4783 218.4107 77.4783 218.4107 83.4783"></polygon>
                    <polygon id="Fill-76" fill="#AABFCE" points="235.0186 83.4783 235.0186 77.4783 246.5966 77.4783 246.5966 83.4783"></polygon>
                    <polygon id="Fill-77" fill="#CED9E0" points="263.2046 83.4783 263.2046 77.4783 274.7826 77.4783 274.7826 83.4783"></polygon>
                    <polygon id="Fill-78" fill="#CED9E0" points="291.3905 83.4783 291.3905 77.4783 302.9685 77.4783 302.9685 83.4783"></polygon>
                    <polygon id="Fill-79" fill="#CED9E0" points="319.5764 83.4783 319.5764 77.4783 331.1544 77.4783 331.1544 83.4783"></polygon>
                    <polygon id="Fill-80" fill="#CED9E0" points="302.974 62.9902 302.974 56.9902 347.768 56.9902 347.768 62.9902"></polygon>
                    <polygon id="Fill-81" fill="#CED9E0" points="347.7624 83.4783 347.7624 77.4783 359.3404 77.4783 359.3404 83.4783"></polygon>
                    <polygon id="Fill-82" fill="#CED9E0" points="375.9483 83.4783 375.9483 77.4783 387.5263 77.4783 387.5263 83.4783"></polygon>
                    <polygon id="Fill-83" fill="#AABFCE" points="404.1342 83.4783 404.1342 77.4783 415.7122 77.4783 415.7122 83.4783"></polygon>
                    <polygon id="Fill-84" fill="#CED9E0" points="432.3202 83.4783 432.3202 77.4783 443.8982 77.4783 443.8982 83.4783"></polygon>
                    <polygon id="Fill-85" fill="#CED9E0" points="460.5061 83.4783 460.5061 77.4783 472.0841 77.4783 472.0841 83.4783"></polygon>
                    <polygon id="Fill-86" fill="#CED9E0" points="9.6845 62.9893 9.6845 56.9893 0.9665 56.9893 0.9665 62.9893"></polygon>
                    <polygon id="Fill-87" fill="#CED9E0" points="49.4536 83.4783 49.4536 77.4783 37.8756 77.4783 37.8756 83.4783"></polygon>
                    <polygon id="Fill-88" fill="#CED9E0" points="21.2677 83.4783 21.2677 77.4783 9.6897 77.4783 9.6897 83.4783"></polygon>
                    <path d="M354.5107,291.2922 L354.5107,315.2392" id="Stroke-89" stroke="#3DAFE2" stroke-width="1.5"></path>
                    <polyline id="Stroke-90" stroke="#AABFCE" stroke-width="1.5" points="397.4234 139.2437 428.6754 139.2437 428.6754 168.9947"></polyline>
                    <polyline id="Stroke-91" stroke="#AABFCE" stroke-width="1.5" points="179.6812 108.9763 196.6752 108.9763 196.6752 202.0823"></polyline>
                    <polyline id="Stroke-92" stroke="#CED9E0" stroke-width="1.5" points="112.6396 142.1652 132.0676 142.1652 132.0676 168.9902"></polyline>
                    <polyline id="Stroke-93" stroke="#AABFCE" stroke-width="1.5" points="59.5066 240.9114 90.4966 240.9114 90.4966 252.7594"></polyline>
                    <polyline id="Stroke-94" stroke="#AABFCE" stroke-width="1.5" points="179.652 258.759 186.928 258.759 186.928 270.602"></polyline>
                    <polyline id="Stroke-95" stroke="#AABFCE" stroke-width="1.5" points="291.3969 276.6055 359.3409 276.6055 359.3409 288.4405"></polyline>
                    <polygon id="Fill-96" fill="#3DAFE2" points="367.9532 299.9158 354.5122 299.9158 354.5122 291.9428 367.9532 291.9428 363.3652 295.9288"></polygon>
                    <polygon id="Stroke-97" stroke="#3DAEE1" stroke-width="1.5" points="367.9532 299.9158 354.5122 299.9158 354.5122 291.9428 367.9532 291.9428 363.3652 295.9288"></polygon>
                </g>
            </g>
        </g>
    </g>
</svg>