<svg data-name="Layer 3" xmlns="http://www.w3.org/2000/svg" viewBox="0 0 1017.99 498.89"><path fill="none" stroke="#aaa" stroke-miterlimit="10" d="M356.15 369.6l32.01-32.01 128.07 128.06-64.05-.02-96.03-96.03z"/><path fill="none" stroke="#aaa" stroke-miterlimit="10" d="M420.18 369.6l-32.01-32.01-96.06 96.05 64.05-.01 64.02-64.03z"/><path fill="none" stroke="#aaa" stroke-miterlimit="10" d="M228.09 369.61l-32.02 32.02 96.06 96.05-.02-64.04-64.02-64.03zM420.2 497.65l-32.01-32.02 96.03-96.03 32.04.13-.02 31.89-96.04 96.03z"/><path fill="none" stroke="#aaa" stroke-miterlimit="10" d="M388.21 465.65l32.01-32.01-128.06-128.06.02 64.04 96.03 96.03zM740.33 433.63l-32.01-32.01 96.05-96.05-.02 64.04-64.02 64.02z"/><path fill="none" stroke="#aaa" stroke-miterlimit="10" d="M740.32 241.54l-32.02 32.02 96.06 96.05-.02-64.05-64.02-64.02z"/><path fill="none" stroke="#aaa" stroke-miterlimit="10" d="M644.29 337.59l-32.02-32.02 96.05-96.05-.01 64.04-64.02 64.03zM644.29 81.48l32.02-32.01 128.06 128.06-64.04-.01-96.04-96.04z"/><path fill="none" stroke="#aaa" stroke-miterlimit="10" d="M708.32 81.48l-32.01-32.01-96.05 96.05 64.04-.01 64.02-64.03zM708.35 401.64l-32.02 32.01-128.06-128.06 64.05.01 96.03 96.04zM452.23 145.5l-32.02 32.02 128.06 128.06-.01-64.05-96.03-96.03z"/><path fill="none" stroke="#aaa" stroke-miterlimit="10" d="M612.3 305.58l32.01-32.01-128.06-128.06.01 64.04 96.04 96.03z"/><path fill="none" stroke="#aaa" stroke-miterlimit="10" d="M612.3 241.55l32.01 32.02-96.05 96.05.01-64.04 64.03-64.03z"/><path fill="none" stroke="#aaa" stroke-miterlimit="10" d="M484.21 433.63l32.02 32.02 128.06-128.06-64.05.01-96.03 96.03zM548.26 113.48l-32.01 32.02 96.05 96.05-.02-64.04-64.02-64.03zM708.35 209.53l-32.02-32.01 96.04-96.04 32.04.13-.03 31.89-96.03 96.03z"/><path fill="none" stroke="#aaa" stroke-miterlimit="10" d="M516.26 273.56l-32.02 32.01L612.3 433.63l-.01-64.04-96.03-96.03zM484.22 305.58l-32.01-32.01-128.06 128.06 64.04-.01 96.03-96.04z"/><path fill="none" stroke="#aaa" stroke-miterlimit="10" d="M420.19 305.58l32.02-32.01 96.05 96.05-64.04-.01-64.03-64.03zM676.35 177.53l32.02-32.01L580.31 17.46l.01 64.04 96.03 96.03z"/><path fill="none" stroke="#aaa" stroke-miterlimit="10" d="M484.22 241.56l-32.02-32.02-96.05 96.06 64.04-.02 64.03-64.02zM452.23 209.53l-32.02-32.01 96.05-96.06-.01 64.05-64.02 64.02zM644.31 401.61l-32.02-32.02-128.06 128.06 64.04-.01 96.04-96.03z"/><path fill="none" stroke="#aaa" stroke-miterlimit="10" d="M580.27 401.61l32.02-32.02 96.05 96.05-64.04-.01-64.03-64.02z"/><path fill="none" stroke="#aaa" stroke-miterlimit="10" d="M889.24 161.28l-32.02-32.01L985.28 1.21l-.01 64.04-96.03 96.03z"/><path fill="none" stroke="#aaa" stroke-miterlimit="10" d="M889.24 97.25l-32.02 32.02 96.05 96.05-.01-64.04-64.02-64.03zM1017.28 97.23l-32.01 32.01-96.03-96.03.13-32.04 31.88.03 96.03 96.03z"/><path fill="none" stroke="#aaa" stroke-miterlimit="10" d="M985.29 129.22l-32.02-32.01-128.06 128.06 64.04-.01 96.04-96.04z"/></svg>